<?xml version="1.0" encoding="UTF-8"?>
<svg id="Layer_1" data-name="Layer 1" xmlns="http://www.w3.org/2000/svg" version="1.1" viewBox="0 0 256 256">
  <defs>
    <style>
      .cls-1 {
        fill: #000;
      }

      .cls-1, .cls-2 {
        stroke-width: 0px;
      }

      .cls-2 {
        fill: #fff;
      }
    </style>
  </defs>
  <path class="cls-1" d="M217.1,195.3h-68.3c-3.1,0-5.6-2.5-5.6-5.6s2.5-5.6,5.6-5.6h68.3c3.1,0,5.6,2.5,5.6,5.6s-2.5,5.6-5.6,5.6Z"/>
  <path class="cls-1" d="M153.5,71.6H38.6c-3.1,0-5.6-2.5-5.6-5.6s2.5-5.6,5.6-5.6h114.9c3.1,0,5.6,2.5,5.6,5.6s-2.5,5.6-5.6,5.6Z"/>
  <path class="cls-1" d="M217.1,133.5h-124.7c-3.1,0-5.6-2.5-5.6-5.6s2.5-5.6,5.6-5.6h124.7c3.1,0,5.6,2.5,5.6,5.6s-2.5,5.6-5.6,5.6Z"/>
  <path class="cls-1" d="M78,148.9c-12.2,0-22-9.9-22-22s9.9-22,22-22,22,9.9,22,22-9.9,22-22,22ZM78,116.1c-6,0-10.8,4.8-10.8,10.8s4.8,10.8,10.8,10.8,10.8-4.8,10.8-10.8-4.8-10.8-10.8-10.8Z"/>
  <path class="cls-1" d="M132.4,209.7c-12.2,0-22-9.9-22-22s9.9-22,22-22,22,9.9,22,22-9.9,22-22,22ZM132.4,176.9c-6,0-10.8,4.8-10.8,10.8s4.8,10.8,10.8,10.8,10.8-4.8,10.8-10.8-4.8-10.8-10.8-10.8Z"/>
  <path class="cls-1" d="M169.9,89.1c-12.2,0-22-9.9-22-22s9.9-22,22-22,22,9.9,22,22-9.9,22-22,22ZM169.9,56.2c-6,0-10.8,4.8-10.8,10.8s4.8,10.8,10.8,10.8,10.8-4.8,10.8-10.8-4.8-10.8-10.8-10.8Z"/>
  <path class="cls-1" d="M116,195.3H38.6c-3.1,0-5.6-2.5-5.6-5.6s2.5-5.6,5.6-5.6h77.4c3.1,0,5.6,2.5,5.6,5.6s-2.5,5.6-5.6,5.6Z"/>
  <path class="cls-1" d="M59.6,133.5h-21c-3.1,0-5.6-2.5-5.6-5.6s2.5-5.6,5.6-5.6h21c3.1,0,5.6,2.5,5.6,5.6s-2.5,5.6-5.6,5.6Z"/>
  <path class="cls-1" d="M217.1,71.6h-30.8c-3.1,0-5.6-2.5-5.6-5.6s2.5-5.6,5.6-5.6h30.8c3.1,0,5.6,2.5,5.6,5.6s-2.5,5.6-5.6,5.6Z"/>
  <path class="cls-2" d="M214.5,254.3H41.2c-22,0-39.8-17.9-39.8-39.8V41.2c0-21.9,17.9-39.8,39.8-39.8h173.3c21.9,0,39.8,17.9,39.8,39.8v173.3c0,21.9-17.9,39.8-39.8,39.8ZM41.2,12.6c-15.8,0-28.6,12.8-28.6,28.6v173.3c0,15.8,12.8,28.6,28.6,28.6h173.3c15.8,0,28.6-12.8,28.6-28.6V41.2c0-15.8-12.8-28.6-28.6-28.6H41.2Z"/>
  <g>
    <path class="cls-2" d="M213.1,1.1H43.9C20.8,1.1,2.1,19.8,2.1,42.9v169.3c0,23.1,18.8,41.8,41.8,41.8h169.3c23.1,0,41.8-18.8,41.8-41.8V42.9c0-23.1-18.8-41.8-41.8-41.8ZM215.7,196.3h-59.8c-3.4,9.3-12.4,16-22.9,16s-19.5-6.7-22.9-16H41.3c-4.7,0-8.4-3.8-8.4-8.4s3.8-8.4,8.4-8.4h68.7c3.4-9.3,12.4-16,22.9-16s19.5,6.7,22.9,16h59.8c4.7,0,8.4,3.8,8.4,8.4s-3.8,8.4-8.4,8.4ZM215.7,135.9h-114.9c-3.4,9.3-12.4,16-22.9,16s-19.5-6.7-22.9-16h-13.6c-4.7,0-8.4-3.8-8.4-8.4s3.8-8.4,8.4-8.4h13.6c3.4-9.3,12.4-16,22.9-16s19.5,6.7,22.9,16h114.9c4.7,0,8.4,3.8,8.4,8.4,0,4.7-3.8,8.4-8.4,8.4ZM215.7,75.5h-23.1c-3.4,9.3-12.4,16-22.9,16s-19.5-6.7-22.9-16H41.3c-4.7,0-8.4-3.8-8.4-8.4s3.8-8.4,8.4-8.4h105.3c3.4-9.3,12.4-16,22.9-16s19.5,6.7,22.9,16h23.1c4.7,0,8.4,3.8,8.4,8.4s-3.8,8.4-8.4,8.4Z"/>
    <circle class="cls-2" cx="77.8" cy="127.5" r="12.6"/>
    <circle class="cls-2" cx="170" cy="67.1" r="12.6" transform="translate(76.6 224.1) rotate(-80.8)"/>
    <circle class="cls-2" cx="132.9" cy="187.9" r="12.6"/>
  </g>
</svg>